<svg width="31" height="31" viewBox="0 0 31 31" xmlns="http://www.w3.org/2000/svg"><title>Logo</title><g fill="#3E3E3E" fill-rule="evenodd"><path d="M27.673 5.706v-.012c0-.34.274-.617.613-.617h1.29c-.133-.282-.278-.553-.438-.813H25.53c-.34 0-.613-.276-.613-.617v-.013c0-.34.274-.617.613-.617h2.65C26.49 1.227 23.914.22 20.59.22h-9.526c-1.202 0-2.23.868-2.44 2.06l-.002.01H5.742c-.34 0-.613.276-.613.617v.013c0 .34.273.617.612.617h2.66l-.128.727H6.98c-.338 0-.613.276-.613.617v.013c0 .34.275.617.614.617h1.075L7.71 7.484H5.74c-.34 0-.613.277-.613.617v.014c0 .34.273.617.612.617H7.49l-.237 1.35H3.78c-.338 0-.612.278-.612.62v.01c0 .342.274.618.613.618h3.255l-.22 1.247h-.484c-.337 0-.612.276-.612.617v.012c0 .34.275.617.613.617h.267l-.638 3.637H5.74c-.34 0-.613.276-.613.617v.013c0 .34.273.616.61.616l-.947 5.403h-1.6c-.34 0-.615.276-.615.617v.012c0 .34.275.617.614.617h1.382l-.127.727H.64c-.337 0-.612.276-.612.617v.012c0 .34.275.616.613.616H4.23l-.235 1.342c-.134.763.45 1.463 1.22 1.463h4.76c.9 0 1.672-.65 1.83-1.544l.292-1.668H8.292c-.338 0-.613-.276-.613-.617v-.012c0-.34.274-.617.613-.617h3.874c.05 0 .095.018.14.03l.172-.97h-.677c-.338 0-.613-.277-.613-.618V24.1c0-.34.275-.618.613-.618h.894l.16-.906h-2.014c-.34 0-.613-.276-.613-.617v-.014c0-.34.274-.617.613-.617h2.712c.014-.002.027-.008.04-.008h4.228c3.636 0 6.47-.98 8.527-2.618h-2.616c-.338 0-.613-.277-.613-.617v-.013c0-.34.276-.617.614-.617h3.875c.012 0 .024.007.037.008.186-.21.36-.43.527-.652H26.74c-.338 0-.612-.277-.612-.618v-.012c0-.34.274-.617.613-.617h2.24c.59-1.074 1.01-2.254 1.253-3.513.174-.855.24-1.753.24-2.63 0-1.122-.148-2.156-.424-3.1h-1.764c-.34 0-.613-.276-.613-.617zM9.728 21.96c0 .34-.275.616-.614.616h-.04c-.338 0-.612-.276-.612-.617v-.014c0-.34.274-.617.613-.617h.04c.338 0 .612.276.612.616v.013zM22.48 11.263c-.5 2.213-2.2 3.9-5.138 3.9h-.12c-.017.002-.033.01-.053.01h-3.873c-.34 0-.613-.275-.613-.616v-.012c0-.34.274-.617.613-.617h1.134c0-.077.002-.153.016-.23l1.192-6.754c.105-.595.62-1.03 1.22-1.03h1.792c2.09 0 4.028 1.12 4.028 3.902 0 .46-.065 1.008-.196 1.446zm1.338-7h-1.398c-.338 0-.613-.276-.613-.617v-.013c0-.34.274-.617.612-.617h1.398c.338 0 .613.277.613.617v.013c0 .34-.275.617-.613.617zm1.73 11.93c0 .342-.275.62-.613.62h-.04c-.34 0-.613-.278-.613-.62v-.01c0-.342.274-.618.613-.618h.04c.338 0 .613.276.613.617v.012z"/><path d="M4.813 13.82c.338 0 .613-.275.613-.616v-.012c0-.34-.275-.617-.613-.617H.938c-.338 0-.613.276-.613.617v.012c0 .34.275.617.613.617h3.875zM2.667 18.704h1.397c.34 0 .614-.277.614-.617v-.013c0-.34-.275-.617-.614-.617H2.667c-.34 0-.613.276-.613.617v.013c0 .34.274.617.613.617M4.08 3.537h.04c.34 0 .613-.277.613-.617v-.013c0-.34-.274-.617-.613-.617h-.04c-.338 0-.613.276-.613.617v.013c0 .34.275.617.614.617M1.514 24.106h-.04c-.338 0-.613.276-.613.617v.012c0 .34.276.617.614.617h.04c.34 0 .613-.276.613-.617v-.012c0-.34-.274-.617-.613-.617"/></g></svg>